<svg width="1170" height="136" viewBox="0 0 1170 136" fill="none" xmlns="http://www.w3.org/2000/svg">
<g id="Frame 1">
<g id="Group 1">
<path id="web development" d="M94.5529 97.09H98.2629L91.8929 116.97L89.7929 112.14L94.5529 97.09ZM78.9429 109.55L71.8729 126H67.1129L58.7829 97.09H62.4929L69.7729 122.64L76.6329 106.4H81.2529L89.9329 126H86.3629L78.9429 109.55ZM150.628 114.94V111.72H167.288V100.38H145.168V122.71H170.858V126H145.168C144.141 126 143.278 125.65 142.578 124.95C141.878 124.25 141.528 123.387 141.528 122.36V100.73C141.528 99.7033 141.878 98.84 142.578 98.14C143.278 97.44 144.141 97.09 145.168 97.09H167.288C168.315 97.09 169.178 97.44 169.878 98.14C170.578 98.84 170.928 99.7033 170.928 100.73V111.3C170.928 112.327 170.578 113.19 169.878 113.89C169.178 114.59 168.315 114.94 167.288 114.94H150.628ZM245.952 122.36C245.952 123.387 245.602 124.25 244.902 124.95C244.202 125.65 243.339 126 242.312 126H227.822V122.71H242.312V100.38H222.432V126H218.792V87.5H222.432V97.09H242.312C243.339 97.09 244.202 97.44 244.902 98.14C245.602 98.84 245.952 99.7033 245.952 100.73V122.36ZM372.187 97.09V100.38H357.697V122.71H377.577V87.5H381.217V126H357.697C356.67 126 355.807 125.65 355.107 124.95C354.407 124.25 354.057 123.387 354.057 122.36V100.73C354.057 99.7033 354.407 98.84 355.107 98.14C355.807 97.44 356.67 97.09 357.697 97.09H372.187ZM438.558 114.94V111.72H455.218V100.38H433.098V122.71H458.788V126H433.098C432.071 126 431.208 125.65 430.508 124.95C429.808 124.25 429.458 123.387 429.458 122.36V100.73C429.458 99.7033 429.808 98.84 430.508 98.14C431.208 97.44 432.071 97.09 433.098 97.09H455.218C456.244 97.09 457.108 97.44 457.808 98.14C458.508 98.84 458.858 99.7033 458.858 100.73V111.3C458.858 112.327 458.508 113.19 457.808 113.89C457.108 114.59 456.244 114.94 455.218 114.94H438.558ZM520.038 115.22L526.968 97.09H530.748L522.068 119.49L520.038 115.22ZM504.988 97.09L518.708 126H514.858L501.068 97.09H504.988ZM583.821 114.94V111.72H600.481V100.38H578.361V122.71H604.051V126H578.361C577.335 126 576.471 125.65 575.771 124.95C575.071 124.25 574.721 123.387 574.721 122.36V100.73C574.721 99.7033 575.071 98.84 575.771 98.14C576.471 97.44 577.335 97.09 578.361 97.09H600.481C601.508 97.09 602.371 97.44 603.071 98.14C603.771 98.84 604.121 99.7033 604.121 100.73V111.3C604.121 112.327 603.771 113.19 603.071 113.89C602.371 114.59 601.508 114.94 600.481 114.94H583.821ZM651.985 126V87.5H655.625V122.71H659.265V126H651.985ZM703.852 100.73C703.852 99.7033 704.202 98.84 704.902 98.14C705.602 97.44 706.465 97.09 707.492 97.09H727.932C728.959 97.09 729.822 97.44 730.522 98.14C731.222 98.84 731.572 99.7033 731.572 100.73V122.36C731.572 123.387 731.222 124.25 730.522 124.95C729.822 125.65 728.959 126 727.932 126H707.492C706.465 126 705.602 125.65 704.902 124.95C704.202 124.25 703.852 123.387 703.852 122.36V100.73ZM707.492 122.71H727.932V100.38H707.492V122.71ZM788.847 126V122.71H803.337V100.38H783.457V135.59H779.817V97.09H803.337C804.364 97.09 805.227 97.44 805.927 98.14C806.627 98.84 806.977 99.7033 806.977 100.73V122.36C806.977 123.387 806.627 124.25 805.927 124.95C805.227 125.65 804.364 126 803.337 126H788.847ZM895.328 97.09C896.354 97.09 897.218 97.44 897.918 98.14C898.618 98.84 898.968 99.7033 898.968 100.73V126H895.328V100.38H878.668V126H875.028V100.38H858.438V126H854.798V100.73C854.798 99.7033 855.148 98.84 855.848 98.14C856.548 97.44 857.411 97.09 858.438 97.09H872.788C874.328 97.09 875.681 97.6267 876.848 98.7C878.014 97.6267 879.368 97.09 880.908 97.09H895.328ZM955.901 114.94V111.72H972.561V100.38H950.441V122.71H976.131V126H950.441C949.415 126 948.551 125.65 947.851 124.95C947.151 124.25 946.801 123.387 946.801 122.36V100.73C946.801 99.7033 947.151 98.84 947.851 98.14C948.551 97.44 949.415 97.09 950.441 97.09H972.561C973.588 97.09 974.451 97.44 975.151 98.14C975.851 98.84 976.201 99.7033 976.201 100.73V111.3C976.201 112.327 975.851 113.19 975.151 113.89C974.451 114.59 973.588 114.94 972.561 114.94H955.901ZM1046.96 126V100.38H1027.29V126H1023.65V100.73C1023.65 99.7033 1024 98.84 1024.7 98.14C1025.4 97.44 1026.26 97.09 1027.29 97.09H1046.96C1047.98 97.09 1048.85 97.44 1049.55 98.14C1050.25 98.84 1050.6 99.7033 1050.6 100.73V126H1046.96ZM1093.94 97.09H1099.26V89.88H1102.97V97.09H1113.26V100.24H1102.97V126H1099.26V100.24H1093.94V97.09Z" fill="#00CDAC"/>
<path id="BYTHEALPHABET" d="M26.0088 12.504V69.772H62.0098C66.4578 69.772 69.8401 68.66 72.1568 66.436C74.5661 64.1193 75.7708 61.015 75.7708 57.123C75.7708 52.953 74.4735 49.5243 71.8788 46.837C69.2841 44.1497 66.2261 42.806 62.7048 42.806H37.6848V35.856H61.8708C65.2995 35.856 68.0795 34.6513 70.2108 32.242C72.4348 29.8327 73.5468 26.9137 73.5468 23.485C73.5468 20.149 72.4811 17.508 70.3498 15.562C68.2185 13.5233 65.2995 12.504 61.5928 12.504H26.0088ZM62.9828 5.276C67.9868 5.276 72.2495 7.083 75.7708 10.697C79.3848 14.2183 81.1918 18.5273 81.1918 23.624C81.1918 29.8327 78.6898 34.9293 73.6858 38.914C76.3731 40.582 78.6435 43.0377 80.4968 46.281C82.4428 49.4317 83.4158 52.9993 83.4158 56.984C83.4158 62.7293 81.5161 67.5017 77.7168 71.301C73.9175 75.1003 69.1915 77 63.5388 77H18.3638V5.276H62.9828ZM142.806 47.532V77H135.161V45.586L165.324 5.276H174.776L142.806 47.532ZM112.782 5.276L132.103 31.13L127.516 37.246L103.33 5.276H112.782ZM251.181 5.276V12.504H182.932V5.276H251.181ZM220.879 23.763V77H213.234V23.763H220.879ZM279.708 5.276V77H272.063V5.276H279.708ZM335.447 36.69V5.276H343.092V77H335.447V43.779H291.384V36.69H335.447ZM387.083 69.772H440.181V77H379.438V5.276H439.625V12.504H387.083V69.772ZM431.424 36.829V43.779H398.759V36.829H431.424ZM527.14 77L518.383 59.208H485.44L488.776 52.258H515.186L495.726 12.226L464.312 77H455.972L491 5.276H500.452L535.48 77H527.14ZM565.173 5.276V69.772H615.492V77H557.528V5.276H565.173ZM647.844 12.504V77H640.199V5.276H683.984C690.007 5.276 694.965 7.26833 698.857 11.253C702.749 15.145 704.695 20.149 704.695 26.265C704.695 32.4737 702.702 37.663 698.718 41.833C694.733 45.9103 689.822 47.949 683.984 47.949H659.52V40.86H682.872C687.134 40.86 690.563 39.5163 693.158 36.829C695.845 34.1417 697.189 30.574 697.189 26.126C697.189 17.0447 692.416 12.504 682.872 12.504H647.844ZM740.824 5.276V77H733.179V5.276H740.824ZM796.563 36.69V5.276H804.208V77H796.563V43.779H752.5V36.69H796.563ZM897.444 77L888.687 59.208H855.744L859.08 52.258H885.49L866.03 12.226L834.616 77H826.276L861.304 5.276H870.756L905.784 77H897.444ZM935.617 12.504V69.772H971.618C976.066 69.772 979.449 68.66 981.765 66.436C984.175 64.1193 985.379 61.015 985.379 57.123C985.379 52.953 984.082 49.5243 981.487 46.837C978.893 44.1497 975.835 42.806 972.313 42.806H947.293V35.856H971.479C974.908 35.856 977.688 34.6513 979.819 32.242C982.043 29.8327 983.155 26.9137 983.155 23.485C983.155 20.149 982.09 17.508 979.958 15.562C977.827 13.5233 974.908 12.504 971.201 12.504H935.617ZM972.591 5.276C977.595 5.276 981.858 7.083 985.379 10.697C988.993 14.2183 990.8 18.5273 990.8 23.624C990.8 29.8327 988.298 34.9293 983.294 38.914C985.982 40.582 988.252 43.0377 990.105 46.281C992.051 49.4317 993.024 52.9993 993.024 56.984C993.024 62.7293 991.125 67.5017 987.325 71.301C983.526 75.1003 978.8 77 973.147 77H927.972V5.276H972.591ZM1032.54 69.772H1085.64V77H1024.89V5.276H1085.08V12.504H1032.54V69.772ZM1076.88 36.829V43.779H1044.21V36.829H1076.88ZM1167.03 5.276V12.504H1098.78V5.276H1167.03ZM1136.73 23.763V77H1129.09V23.763H1136.73Z" fill="#11375F"/>
</g>
</g>
</svg>
